<svg width="54" height="54" viewBox="0 0 54 54" fill="none" xmlns="http://www.w3.org/2000/svg">
<path d="M23.3557 25.4424H28.0287C28.4586 25.4424 28.8076 25.0935 28.8076 24.6636C28.8076 24.2337 28.4586 23.8848 28.0287 23.8848H23.3557C22.9258 23.8848 22.5768 24.2337 22.5768 24.6636C22.5768 25.0935 22.9258 25.4424 23.3557 25.4424Z" fill="white"/>
<path d="M46.7211 9.86544H23.3557C22.9258 9.86544 22.5769 10.2144 22.5769 10.6443C22.5769 11.0741 22.9258 11.4231 23.3557 11.4231H45.9423V46.4711C45.9423 47.7157 44.8503 48.8077 43.6057 48.8077H10.8942C9.64963 48.8077 8.55766 47.7157 8.55766 46.4711V10.7089C9.05847 11.0469 9.61221 11.2455 10.1154 11.3437V46.4711C10.1154 46.901 10.4643 47.2499 10.8942 47.2499C11.3241 47.2499 11.673 46.901 11.673 46.4711V10.6443C11.673 10.2175 11.3249 9.87009 10.898 9.86544C10.507 9.86079 8.55757 9.72762 8.55757 7.5289V6.75009C8.55757 5.89104 9.25616 5.19237 10.1153 5.19237H46.7211C47.151 5.19237 47.4999 4.84344 47.4999 4.41355C47.4999 3.98366 47.1511 3.63464 46.7211 3.63464H10.1154C8.39721 3.63464 6.99994 5.03191 6.99994 6.75V46.4711C6.99994 48.5819 8.78356 50.3654 10.8942 50.3654H43.6057C45.7164 50.3654 47.5 48.5819 47.5 46.4711V10.6443C47.5 10.2144 47.1511 9.86544 46.7211 9.86544Z" fill="white"/>
<path d="M45.9422 7.52894C45.9422 7.09905 45.5932 6.75012 45.1634 6.75012H20.2403C19.8104 6.75012 19.4614 7.09905 19.4614 7.52894V14.995L17.6755 13.209C17.371 12.9044 16.8787 12.9044 16.5743 13.209L14.7884 14.9949V7.52894C14.7884 7.09905 14.4394 6.75012 14.0096 6.75012H10.8941C10.4642 6.75012 10.1153 7.09905 10.1153 7.52894C10.1153 7.95882 10.4642 8.30775 10.8941 8.30775H13.2306V16.8751C13.2306 17.1898 13.4207 17.474 13.7112 17.5948C14.0024 17.7147 14.3366 17.6485 14.5601 17.4257L17.1248 14.861L19.6895 17.4257C19.8383 17.5745 20.0376 17.6539 20.2402 17.6539C20.3407 17.6539 20.4419 17.6345 20.5384 17.5947C20.829 17.4739 21.019 17.1897 21.019 16.875V8.30775H45.1632C45.5932 8.30775 45.9422 7.95882 45.9422 7.52894Z" fill="white"/>
<path d="M17.9038 19.9905V32.452C17.9038 32.8819 18.2527 33.2308 18.6826 33.2308H35.8172C36.2471 33.2308 36.596 32.8819 36.596 32.452V19.9905C36.596 19.5606 36.2471 19.2117 35.8172 19.2117H18.6826C18.2527 19.2117 17.9038 19.5606 17.9038 19.9905ZM19.4615 20.7693H35.0385V31.6732H19.4615V20.7693Z" fill="white"/>
<path d="M31.1441 27.0001H23.3557C22.9258 27.0001 22.5769 27.349 22.5769 27.7789C22.5769 28.2088 22.9258 28.5578 23.3557 28.5578H31.1441C31.574 28.5578 31.923 28.2088 31.923 27.7789C31.923 27.349 31.574 27.0001 31.1441 27.0001Z" fill="white"/>
</svg>
