<svg width="28" height="28" viewBox="0 0 28 28" fill="none" xmlns="http://www.w3.org/2000/svg">
<g clip-path="url(#clip0)">
<path d="M24.2083 2.75H22.9583V0.666664H20.875V2.75H7.12496V0.666664H5.04163V2.75H3.79163C2.0685 2.75 0.666626 4.15187 0.666626 5.875V24.2083C0.666626 25.9315 2.0685 27.3333 3.79163 27.3333H24.2083C25.9314 27.3333 27.3333 25.9315 27.3333 24.2083V5.875C27.3333 4.15187 25.9314 2.75 24.2083 2.75ZM25.25 24.2083C25.25 24.7827 24.7827 25.25 24.2083 25.25H3.79163C3.21725 25.25 2.74996 24.7827 2.74996 24.2083V10.4583H25.25V24.2083ZM25.25 8.375H2.74996V5.875C2.74996 5.30062 3.21725 4.83333 3.79163 4.83333H5.04163V6.91666H7.12496V4.83333H20.875V6.91666H22.9583V4.83333H24.2083C24.7827 4.83333 25.25 5.30062 25.25 5.875V8.375Z" fill="white"/>
<path d="M6.70833 12.6458H4.625V14.7292H6.70833V12.6458Z" fill="white"/>
<path d="M10.875 12.6458H8.79163V14.7292H10.875V12.6458Z" fill="white"/>
<path d="M15.0416 12.6458H12.9583V14.7292H15.0416V12.6458Z" fill="white"/>
<path d="M19.2083 12.6458H17.125V14.7292H19.2083V12.6458Z" fill="white"/>
<path d="M23.375 12.6458H21.2916V14.7292H23.375V12.6458Z" fill="white"/>
<path d="M6.70833 16.8125H4.625V18.8958H6.70833V16.8125Z" fill="white"/>
<path d="M10.875 16.8125H8.79163V18.8958H10.875V16.8125Z" fill="white"/>
<path d="M15.0416 16.8125H12.9583V18.8958H15.0416V16.8125Z" fill="white"/>
<path d="M19.2083 16.8125H17.125V18.8958H19.2083V16.8125Z" fill="white"/>
<path d="M6.70833 20.9792H4.625V23.0625H6.70833V20.9792Z" fill="white"/>
<path d="M10.875 20.9792H8.79163V23.0625H10.875V20.9792Z" fill="white"/>
<path d="M15.0416 20.9792H12.9583V23.0625H15.0416V20.9792Z" fill="white"/>
<path d="M19.2083 20.9792H17.125V23.0625H19.2083V20.9792Z" fill="white"/>
<path d="M23.375 16.8125H21.2916V18.8958H23.375V16.8125Z" fill="white"/>
</g>
<defs>
<clipPath id="clip0">
<rect x="0.666626" y="0.666664" width="26.6667" height="26.6667" fill="white"/>
</clipPath>
</defs>
</svg>
