<svg width="54" height="54" viewBox="0 0 54 54" fill="none" xmlns="http://www.w3.org/2000/svg">
<path d="M26.2289 20.0486C26.2289 20.4744 26.5737 20.82 27.0003 20.82H34.7146C35.1412 20.82 35.486 20.4744 35.486 20.0486C35.486 19.6228 35.1412 19.2772 34.7146 19.2772H27.0003C26.5737 19.2771 26.2289 19.6227 26.2289 20.0486Z" fill="white"/>
<path d="M30.8574 24.6773C30.8574 25.1031 31.2022 25.4487 31.6288 25.4487H36.2574C36.684 25.4487 37.0288 25.1031 37.0288 24.6773C37.0288 24.2515 36.684 23.9059 36.2574 23.9059H31.6288C31.2022 23.9058 30.8574 24.2514 30.8574 24.6773Z" fill="white"/>
<path d="M30.086 16.1914C30.5126 16.1914 30.8574 15.8458 30.8574 15.42C30.8574 14.9942 30.5126 14.6486 30.086 14.6486H28.5431C28.1165 14.6486 27.7717 14.9942 27.7717 15.42C27.7717 15.8458 28.1165 16.1914 28.5431 16.1914H30.086Z" fill="white"/>
<path d="M20.8287 23.9058C20.402 23.9058 20.0573 24.2514 20.0573 24.6772C20.0573 25.103 20.402 25.4486 20.8287 25.4486H28.543C28.9696 25.4486 29.3144 25.103 29.3144 24.6772C29.3144 24.2514 28.9696 23.9058 28.543 23.9058H20.8287Z" fill="white"/>
<path d="M24.6859 45.5058H10.0287C8.75278 45.5058 7.71442 44.4674 7.71442 43.1915V7.70549C7.71442 7.27969 7.36962 6.93408 6.94301 6.93408C4.81621 6.93408 3.08582 8.66438 3.08582 10.7913C3.08582 11.2171 3.43061 11.5627 3.85722 11.5627C4.28383 11.5627 4.62862 11.2171 4.62862 10.7913C4.62862 9.78528 5.27355 8.92745 6.17152 8.60888V43.1915C6.17152 45.3183 7.90182 47.0487 10.0287 47.0487H24.6859C25.1125 47.0487 25.4573 46.7031 25.4573 46.2773C25.4573 45.8515 25.1125 45.5058 24.6859 45.5058Z" fill="white"/>
<path d="M13.1145 20.82H23.9146C24.3412 20.82 24.686 20.4744 24.686 20.0486C24.686 19.6228 24.3412 19.2772 23.9146 19.2772H13.1145C12.6879 19.2772 12.3431 19.6228 12.3431 20.0486C12.3431 20.4744 12.6879 20.82 13.1145 20.82Z" fill="white"/>
<path d="M13.1145 16.1914H16.2002C16.6269 16.1914 16.9717 15.8458 16.9717 15.42C16.9717 14.9942 16.6269 14.6486 16.2002 14.6486H13.1145C12.6879 14.6486 12.3431 14.9942 12.3431 15.42C12.3431 15.8458 12.6879 16.1914 13.1145 16.1914Z" fill="white"/>
<path d="M25.4574 14.6484H19.2859C18.8593 14.6484 18.5145 14.994 18.5145 15.4198C18.5145 15.8456 18.8593 16.1912 19.2859 16.1912H25.4574C25.884 16.1912 26.2288 15.8456 26.2288 15.4198C26.2289 14.994 25.884 14.6484 25.4574 14.6484Z" fill="white"/>
<path d="M36.2575 3.86621H6.94302C3.12361 3.86621 0.0147673 6.96656 0.00012207 10.7821V10.7913V10.7998V10.8091V10.8183C0.0101567 13.2785 1.33781 15.5703 3.47076 16.8047C3.83951 17.0176 4.31087 16.8918 4.52449 16.5239C4.73892 16.1551 4.61164 15.6831 4.2437 15.4701C2.58057 14.5066 1.54609 12.7184 1.54302 10.7999C1.54844 7.82674 3.96842 5.40911 6.94302 5.40911H36.2575C39.2345 5.40911 41.6575 7.83144 41.6575 10.8091V43.2093C41.6575 43.6004 41.548 43.9931 41.342 44.3433C41.1268 44.7105 41.2486 45.1834 41.6159 45.3994C41.7393 45.4719 41.8735 45.5059 42.0062 45.5059C42.2708 45.5059 42.5285 45.3701 42.6719 45.1256C43.0175 44.5385 43.2003 43.8759 43.2003 43.2093V10.8091C43.2004 6.98048 40.0862 3.86621 36.2575 3.86621Z" fill="white"/>
<path d="M38.5718 39.3344C38.5718 36.7817 36.4959 34.7058 33.9432 34.7058C31.3905 34.7058 29.3146 36.7817 29.3146 39.3344C29.3146 41.8871 31.3905 43.963 33.9432 43.963C36.4959 43.963 38.5718 41.8871 38.5718 39.3344ZM33.9432 42.4201C32.2414 42.4201 30.8575 41.0361 30.8575 39.3344C30.8575 37.6327 32.2414 36.2487 33.9432 36.2487C35.645 36.2487 37.0289 37.6327 37.0289 39.3344C37.0289 41.0361 35.645 42.4201 33.9432 42.4201Z" fill="white"/>
<path d="M32.5507 44.7352C32.1828 44.5223 31.7106 44.6488 31.4969 45.0176L29.836 47.8958L29.5723 47.4978C29.4388 47.2949 29.2174 47.1668 28.9752 47.153L28.4984 47.1244L30.1871 44.2007C30.4 43.8319 30.2735 43.3599 29.9048 43.1469C29.536 42.9332 29.0639 43.0597 28.8502 43.4292L26.5383 47.4338C26.4048 47.6652 26.4009 47.9499 26.5274 48.1851C26.6539 48.4203 26.8931 48.5739 27.1608 48.5893L28.4976 48.6695L29.2359 49.7873C29.3786 50.0041 29.6208 50.1336 29.8793 50.1336H29.9032C30.1694 50.1251 30.4139 49.9793 30.5481 49.7479L32.8339 45.7889C33.0468 45.4203 32.9203 44.9481 32.5507 44.7352Z" fill="white"/>
<path d="M39.0562 43.4655C38.8425 43.096 38.3696 42.9694 38.0024 43.1831C37.6329 43.396 37.5063 43.8682 37.7192 44.2369L39.3879 47.1243L38.9111 47.1529C38.6689 47.1675 38.4475 47.2956 38.3133 47.4977L38.051 47.8957L36.3986 45.0321C36.1842 44.6634 35.712 44.5369 35.3441 44.7498C34.9753 44.9627 34.8489 45.4349 35.0618 45.8036L37.339 49.7479C37.4732 49.9794 37.7178 50.1252 37.9839 50.1337H38.0079C38.2655 50.1337 38.5085 50.0041 38.652 49.7874L39.3895 48.6704L40.7256 48.5894C40.9933 48.5739 41.2324 48.4204 41.359 48.1852C41.4856 47.9499 41.4809 47.6653 41.3482 47.4338L39.0562 43.4655Z" fill="white"/>
<path d="M13.1145 25.4487H17.7431C18.1698 25.4487 18.5146 25.1031 18.5146 24.6773C18.5146 24.2515 18.1698 23.9059 17.7431 23.9059H13.1145C12.6879 23.9059 12.3431 24.2515 12.3431 24.6773C12.3431 25.1031 12.6879 25.4487 13.1145 25.4487Z" fill="white"/>
<path d="M13.1145 30.0771H22.3717C22.7983 30.0771 23.1431 29.7315 23.1431 29.3057C23.1431 28.8799 22.7983 28.5343 22.3717 28.5343H13.1145C12.6879 28.5343 12.3431 28.8799 12.3431 29.3057C12.3431 29.7315 12.6879 30.0771 13.1145 30.0771Z" fill="white"/>
<path d="M13.1963 39.6792C13.3861 40.0602 13.8497 40.2145 14.2308 40.0248C14.6118 39.8342 14.7669 39.3706 14.5756 38.9895C13.8118 37.462 13.6406 36.092 14.1158 35.3229C14.3688 34.9132 14.8101 34.7057 15.4288 34.7057C15.7967 34.7057 15.934 34.8322 16.0205 34.9556C16.5952 35.7842 16.049 38.3075 15.4774 39.8349C15.3501 40.1751 15.4774 40.5578 15.7829 40.7545C16.0868 40.9497 16.4888 40.9073 16.7457 40.6512C17.0751 40.3226 17.4323 39.9947 17.7432 39.7285V40.1058C17.7432 40.4174 17.9307 40.699 18.2191 40.8178C18.5076 40.9381 18.8386 40.8718 19.06 40.6512C19.4125 40.2994 19.8213 39.9545 20.1654 39.7062C20.1562 39.7255 20.1469 39.744 20.1377 39.7617C20.0196 40.0008 20.0327 40.2848 20.1732 40.5115C20.3144 40.7383 20.562 40.8772 20.8289 40.8772H23.9146C24.3412 40.8772 24.686 40.5316 24.686 40.1058C24.686 39.68 24.3412 39.3344 23.9146 39.3344H21.9066C21.969 38.9672 21.9537 38.5938 21.7677 38.2929C21.571 37.9744 21.2285 37.7915 20.8289 37.7915C20.3521 37.7915 19.7913 38.0815 19.2791 38.441C19.2398 38.1046 19.0407 37.8277 18.7383 37.7028C18.5324 37.6179 18.267 37.5069 17.6228 37.8934C17.8766 36.5642 17.9507 35.0321 17.2888 34.0771C16.9995 33.6597 16.4426 33.163 15.4289 33.163C14.2733 33.163 13.3406 33.642 12.803 34.5122C12.0338 35.7572 12.1765 37.6403 13.1963 39.6792Z" fill="white"/>
<path d="M33.9433 29.3057C33.9433 28.8799 33.5985 28.5343 33.1719 28.5343H25.4576C25.031 28.5343 24.6862 28.8799 24.6862 29.3057C24.6862 29.7315 25.031 30.0771 25.4576 30.0771H33.1719C33.5985 30.0771 33.9433 29.7315 33.9433 29.3057Z" fill="white"/>
</svg>
