<svg width="196" height="50" viewBox="0 0 196 50" fill="none" xmlns="http://www.w3.org/2000/svg">
<path d="M66.4392 16.6345H59.8051V20.5287H67.641V23.5588H55.5866V7.21889H67.6651V10.2602H59.8051V13.7055H66.4392V16.6345Z" fill="#122D98"/>
<path d="M70.3442 23.5588V7.21889H75.9808C77.5272 7.21889 78.9173 7.54808 80.1512 8.20646C81.3851 8.85736 82.3465 9.78134 83.0356 10.9784C83.7327 12.168 84.0852 13.5035 84.0932 14.9848V15.7367C84.0932 17.233 83.7527 18.576 83.0716 19.7656C82.3986 20.9477 81.4452 21.8754 80.2113 22.5487C78.9854 23.2146 77.6153 23.5513 76.101 23.5588H70.3442ZM74.5626 10.2602V20.5287H76.0289C77.2387 20.5287 78.1682 20.1284 78.8171 19.3279C79.4661 18.5199 79.7906 17.3228 79.7906 15.7367V15.0297C79.7906 13.4511 79.4661 12.2615 78.8171 11.461C78.1682 10.6604 77.2227 10.2602 75.9808 10.2602H74.5626Z" fill="#122D98"/>
<path d="M100.966 7.21889V17.9139C100.966 19.1259 100.69 20.1771 100.137 21.0674C99.5839 21.9502 98.7907 22.6236 97.7571 23.0874C96.7236 23.5513 95.5017 23.7832 94.0915 23.7832C91.9603 23.7832 90.2817 23.267 89.0558 22.2345C87.83 21.2021 87.205 19.788 87.181 17.9924V7.21889H91.4235V18.071C91.4715 19.8591 92.3609 20.7532 94.0915 20.7532C94.9649 20.7532 95.6259 20.5287 96.0746 20.0798C96.5232 19.6309 96.7476 18.9015 96.7476 17.8914V7.21889H100.966Z" fill="#122D98"/>
<path d="M118.752 18.0261C118.696 19.1633 118.368 20.1696 117.767 21.0449C117.166 21.9128 116.321 22.5862 115.231 23.065C114.149 23.5438 112.911 23.7832 111.517 23.7832C109.218 23.7832 107.407 23.0837 106.085 21.6846C104.763 20.2856 104.102 18.3104 104.102 15.7592V14.9512C104.102 13.3501 104.398 11.951 104.991 10.754C105.592 9.54941 106.453 8.62169 107.575 7.97079C108.697 7.31241 109.995 6.98322 111.469 6.98322C113.592 6.98322 115.299 7.50693 116.589 8.55436C117.879 9.5943 118.612 11.0308 118.788 12.8638H114.582C114.55 11.8687 114.281 11.1542 113.777 10.7203C113.272 10.2864 112.503 10.0694 111.469 10.0694C110.42 10.0694 109.65 10.436 109.162 11.1692C108.673 11.9024 108.416 13.0733 108.392 14.6818V15.8377C108.392 17.5809 108.625 18.8266 109.089 19.5748C109.562 20.323 110.371 20.697 111.517 20.697C112.487 20.697 113.228 20.4838 113.741 20.0574C114.253 19.6309 114.526 18.9538 114.558 18.0261H118.752Z" fill="#122D98"/>
<path d="M131.671 20.5063H125.89L124.881 23.5588H120.374L126.792 7.21889H130.758L137.224 23.5588H132.693L131.671 20.5063ZM126.9 17.465H130.661L128.775 11.7976L126.9 17.465Z" fill="#122D98"/>
<path d="M151.789 10.2602H146.537V23.5588H142.318V10.2602H137.162V7.21889H151.789V10.2602Z" fill="#122D98"/>
<path d="M159.059 23.5588H154.853V7.21889H159.059V23.5588Z" fill="#122D98"/>
<path d="M177.795 15.7255C177.795 17.3191 177.478 18.7294 176.845 19.9564C176.212 21.1833 175.311 22.1298 174.141 22.7956C172.979 23.454 171.653 23.7832 170.163 23.7832C168.673 23.7832 167.351 23.4652 166.197 22.8293C165.043 22.1859 164.142 21.2694 163.493 20.0798C162.852 18.8902 162.515 17.5248 162.483 15.9836V15.0634C162.483 13.4623 162.796 12.052 163.421 10.8325C164.054 9.60553 164.955 8.6591 166.125 7.99324C167.303 7.32737 168.641 6.99444 170.139 6.99444C171.621 6.99444 172.943 7.32363 174.105 7.98201C175.267 8.6404 176.168 9.57934 176.809 10.7988C177.458 12.0109 177.787 13.4025 177.795 14.9736V15.7255ZM173.504 15.0409C173.504 13.4174 173.212 12.1867 172.627 11.3487C172.05 10.5033 171.221 10.0806 170.139 10.0806C168.024 10.0806 166.906 11.562 166.786 14.5247L166.774 15.7255C166.774 17.3266 167.058 18.5573 167.627 19.4177C168.196 20.2781 169.041 20.7083 170.163 20.7083C171.229 20.7083 172.05 20.2856 172.627 19.4401C173.204 18.5947 173.496 17.3789 173.504 15.7928V15.0409Z" fill="#122D98"/>
<path d="M195.569 23.5588H191.374L185.173 13.3912V23.5588H180.955V7.21889H185.173L191.362 17.3864V7.21889H195.569V23.5588Z" fill="#122D98"/>
<path d="M63.9502 37.0567H58.4509V42.7374H55.5866V28.8364H64.6376V31.1564H58.4509V34.7462H63.9502V37.0567Z" fill="#06AFD0"/>
<path d="M72.1701 42.7374C72.0428 42.4892 71.9505 42.1805 71.8932 41.8113C71.2249 42.556 70.3561 42.9283 69.2868 42.9283C68.2748 42.9283 67.4346 42.6356 66.7663 42.05C66.1043 41.4644 65.7733 40.7261 65.7733 39.835C65.7733 38.7402 66.1775 37.9001 66.9859 37.3145C67.8006 36.7289 68.9749 36.4329 70.5088 36.4266H71.7786V35.8346C71.7786 35.3573 71.6545 34.9754 71.4063 34.6889C71.1644 34.4025 70.7794 34.2593 70.2511 34.2593C69.7864 34.2593 69.4204 34.3707 69.1531 34.5935C68.8921 34.8162 68.7617 35.1218 68.7617 35.51H66.0025C66.0025 34.9117 66.1871 34.358 66.5562 33.8488C66.9254 33.3396 67.4473 32.9418 68.122 32.6553C68.7967 32.3626 69.5541 32.2162 70.3943 32.2162C71.6673 32.2162 72.6761 32.5376 73.4208 33.1805C74.1719 33.8169 74.5474 34.7144 74.5474 35.8728V40.3505C74.5538 41.3307 74.6906 42.0723 74.9579 42.5751V42.7374H72.1701ZM69.8883 40.8184C70.2956 40.8184 70.6711 40.7293 71.0149 40.551C71.3586 40.3665 71.6132 40.1214 71.7786 39.8159V38.0401H70.7475C69.3663 38.0401 68.6312 38.5174 68.5421 39.4722L68.5325 39.6345C68.5325 39.9782 68.6535 40.2614 68.8953 40.4842C69.1372 40.707 69.4682 40.8184 69.8883 40.8184Z" fill="#06AFD0"/>
<path d="M79.9699 42.7374H77.2012V32.4071H79.9699V42.7374ZM77.0389 29.7338C77.0389 29.3201 77.1757 28.9796 77.4494 28.7123C77.7295 28.4449 78.1082 28.3113 78.5856 28.3113C79.0566 28.3113 79.4321 28.4449 79.7122 28.7123C79.9922 28.9796 80.1322 29.3201 80.1322 29.7338C80.1322 30.1539 79.989 30.4976 79.7026 30.765C79.4225 31.0323 79.0502 31.166 78.5856 31.166C78.1209 31.166 77.7454 31.0323 77.459 30.765C77.1789 30.4976 77.0389 30.1539 77.0389 29.7338Z" fill="#06AFD0"/>
<path d="M88.4476 34.9945C88.0721 34.9435 87.7411 34.9181 87.4547 34.9181C86.4109 34.9181 85.7266 35.2713 85.402 35.9778V42.7374H82.6428V32.4071H85.2493L85.3256 33.6387C85.8794 32.6904 86.6464 32.2162 87.6266 32.2162C87.9321 32.2162 88.2185 32.2575 88.4858 32.3403L88.4476 34.9945Z" fill="#06AFD0"/>
<path d="M104.849 42.7374H95.321V40.847L99.8178 36.0542C100.435 35.3795 100.89 34.7908 101.183 34.288C101.482 33.7851 101.632 33.3078 101.632 32.8558C101.632 32.2384 101.476 31.7547 101.164 31.4046C100.852 31.0482 100.407 30.87 99.8274 30.87C99.2036 30.87 98.7103 31.0864 98.3475 31.5192C97.9911 31.9457 97.8129 32.509 97.8129 33.2091H95.0441C95.0441 32.3626 95.2446 31.5892 95.6456 30.8891C96.053 30.1889 96.6258 29.6416 97.3641 29.2469C98.1025 28.8459 98.9395 28.6454 99.8751 28.6454C101.307 28.6454 102.418 28.9891 103.207 29.6766C104.003 30.364 104.401 31.3346 104.401 32.5885C104.401 33.2759 104.222 33.9761 103.866 34.6889C103.509 35.4018 102.898 36.2324 102.033 37.1808L98.8726 40.5129H104.849V42.7374Z" fill="#06AFD0"/>
<path d="M116.296 36.9899C116.296 38.9121 115.898 40.3824 115.103 41.4008C114.307 42.4192 113.142 42.9283 111.608 42.9283C110.094 42.9283 108.935 42.4287 108.133 41.4294C107.331 40.4301 106.921 38.998 106.902 37.1331V34.5744C106.902 32.6331 107.303 31.1596 108.105 30.1539C108.913 29.1483 110.075 28.6454 111.589 28.6454C113.104 28.6454 114.263 29.1451 115.065 30.1444C115.867 31.1373 116.277 32.5662 116.296 34.4312V36.9899ZM113.537 34.1829C113.537 33.0309 113.378 32.1939 113.06 31.672C112.748 31.1437 112.258 30.8795 111.589 30.8795C110.94 30.8795 110.46 31.1309 110.148 31.6338C109.842 32.1302 109.68 32.9099 109.661 33.9729V37.3527C109.661 38.4856 109.814 39.329 110.119 39.8827C110.431 40.4301 110.927 40.7038 111.608 40.7038C112.283 40.7038 112.77 40.4397 113.069 39.9114C113.368 39.3831 113.524 38.5747 113.537 37.4863V34.1829Z" fill="#06AFD0"/>
<path d="M128.087 42.7374H118.559V40.847L123.055 36.0542C123.673 35.3795 124.128 34.7908 124.421 34.288C124.72 33.7851 124.869 33.3078 124.869 32.8558C124.869 32.2384 124.713 31.7547 124.402 31.4046C124.09 31.0482 123.644 30.87 123.065 30.87C122.441 30.87 121.948 31.0864 121.585 31.5192C121.229 31.9457 121.05 32.509 121.05 33.2091H118.282C118.282 32.3626 118.482 31.5892 118.883 30.8891C119.291 30.1889 119.863 29.6416 120.602 29.2469C121.34 28.8459 122.177 28.6454 123.113 28.6454C124.545 28.6454 125.656 28.9891 126.445 29.6766C127.24 30.364 127.638 31.3346 127.638 32.5885C127.638 33.2759 127.46 33.9761 127.104 34.6889C126.747 35.4018 126.136 36.2324 125.27 37.1808L122.11 40.5129H128.087V42.7374Z" fill="#06AFD0"/>
<path d="M136.88 42.7374H134.12V32.1016L130.827 33.1232V30.8795L136.584 28.8173H136.88V42.7374Z" fill="#06AFD0"/>
<g clip-path="url(#clip0)">
<path d="M22.7959 44.2489C22.7015 44.3118 22.6072 44.3118 22.5129 44.3118C22.4185 44.3118 22.3242 44.2803 22.2299 44.2489L5.94264 34.8837C5.75399 34.7894 5.65966 34.6009 5.65966 34.3809V15.6191C5.65966 15.3991 5.78543 15.2106 5.94264 15.1163L22.1984 5.7511C22.2613 5.71967 22.3242 5.68825 22.3557 5.68825L28.1725 2.32558L25.5942 0.848523C24.651 0.282841 23.5819 0 22.4814 0C21.4124 0 20.3119 0.282841 19.3686 0.848523L3.11281 10.2137C1.19482 11.3136 0 13.3878 0 15.6191V34.3809C0 36.6122 1.19482 38.6549 3.11281 39.7863L19.3686 49.1515C20.3433 49.7172 21.4124 50 22.4814 50C23.5505 50 24.651 49.7172 25.5942 49.1515L41.85 39.7863C43.768 38.6864 44.9628 36.6122 44.9628 34.3809V31.6468L22.7959 44.2489Z" fill="#06AFD0"/>
<path d="M44.9721 23.9906L22.6257 36.8916L11.7318 30.6023C10.6145 29.9573 9.2179 30.7637 9.2179 32.0538C9.2179 32.6526 9.53735 33.2059 10.0559 33.5053L22.6257 40.7621L41.6201 29.7962C43.6943 28.5987 44.9721 26.3856 44.9721 23.9906Z" fill="#122D98"/>
<path d="M44.9721 16.1694L22.6257 29.0704L11.7318 22.7811C10.6145 22.1361 9.2179 22.9424 9.2179 24.2326C9.2179 24.8314 9.53735 25.3847 10.0559 25.684L22.6257 32.9408L41.6201 21.975C43.6943 20.7775 44.9721 18.5644 44.9721 16.1694Z" fill="#122D98"/>
</g>
<defs>
<clipPath id="clip0">
<rect width="44.9943" height="50" fill="white"/>
</clipPath>
</defs>
</svg>
