<svg width="62" height="62" viewBox="0 0 62 62" fill="none" xmlns="http://www.w3.org/2000/svg">
<g clip-path="url(#clip0)">
<path d="M60.5809 50.1572H59.5849V18.0999C59.5849 14.823 56.9188 12.1569 53.6418 12.1569H50.4155C49.913 12.1569 49.5059 12.564 49.5059 13.0665C49.5059 13.5689 49.913 13.976 50.4155 13.976H53.6418C55.9158 13.976 57.7658 15.826 57.7658 18.0999V50.1573H37.4341C36.8133 50.1573 36.2342 50.4636 35.8853 50.9766L35.6126 51.3774C35.3593 51.7499 34.9389 51.9721 34.4884 51.9721H27.3901C26.9397 51.9721 26.5195 51.7499 26.266 51.3774L25.9934 50.9767C25.6444 50.4638 25.0654 50.1573 24.4446 50.1573H14.7537C14.2513 50.1573 13.8442 50.5644 13.8442 51.0668C13.8442 51.5693 14.2513 51.9764 14.7537 51.9764H24.4446C24.4626 51.9764 24.4793 51.9851 24.4895 52L24.7622 52.4008C25.3548 53.2714 26.3371 53.7912 27.3901 53.7912H34.4884C35.5416 53.7912 36.5241 53.2715 37.1165 52.4007L37.3892 51.9999C37.3993 51.9851 37.416 51.9764 37.434 51.9764H60.1808V52.9605C60.1808 55.3811 58.2114 57.3504 55.7909 57.3504H6.20902C3.78843 57.3504 1.81909 55.3811 1.81909 52.9605V51.9764H10.8775C11.38 51.9764 11.7871 51.5693 11.7871 51.0668C11.7871 50.5644 11.38 50.1573 10.8775 50.1573H4.23422V18.0999C4.23422 15.826 6.08423 13.976 8.35821 13.976H11.0404C11.5428 13.976 11.9499 13.5689 11.9499 13.0665C11.9499 12.564 11.5428 12.1569 11.0404 12.1569H8.35821C5.08131 12.1569 2.41514 14.8228 2.41514 18.0999V50.1573H1.41913C0.63668 50.1572 0 50.7939 0 51.5764V52.9605C0 56.3841 2.78538 59.1695 6.20902 59.1695H55.791C59.2146 59.1695 62 56.3841 62 52.9605V51.5764C62 50.7939 61.3633 50.1572 60.5809 50.1572Z" fill="#122D98"/>
<path d="M8.35911 17.8566H14.2172C14.7196 17.8566 15.1267 17.4495 15.1267 16.9471C15.1267 16.4446 14.7196 16.0375 14.2172 16.0375H8.35911C7.22194 16.0375 6.29688 16.9627 6.29688 18.0999V47.186C6.29688 47.6885 6.70399 48.0956 7.20642 48.0956H54.7956C55.2981 48.0956 55.7052 47.6885 55.7052 47.186V39.489C55.7052 38.9866 55.2981 38.5795 54.7956 38.5795C54.2932 38.5795 53.8861 38.9866 53.8861 39.489V46.2765H8.11596V18.0999C8.11596 17.9656 8.22498 17.8566 8.35911 17.8566Z" fill="#122D98"/>
<path d="M55.7026 18.0999C55.7026 16.9627 54.7774 16.0375 53.6402 16.0375H50.6942C50.1918 16.0375 49.7847 16.4446 49.7847 16.9471C49.7847 17.4495 50.1918 17.8566 50.6942 17.8566H53.6402C53.7744 17.8566 53.8835 17.9656 53.8835 18.0999V35.6131C53.8835 36.1155 54.2906 36.5226 54.7931 36.5226C55.2955 36.5226 55.7026 36.1155 55.7026 35.6131V18.0999Z" fill="#122D98"/>
<path d="M15.2095 14.7121L17.3556 15.8645V24.3352C17.3556 27.4358 19.8782 29.9582 22.9788 29.9582H39.0232C42.1238 29.9582 44.6464 27.4358 44.6464 24.3352V15.7995L45.9645 15.0917V31.2853C44.5829 31.6815 43.5684 32.9553 43.5684 34.4626C43.5684 36.2853 45.0513 37.7683 46.8741 37.7683C48.6968 37.7683 50.1797 36.2853 50.1797 34.4626C50.1797 32.9553 49.1653 31.6814 47.7836 31.2853V12.8525C47.7836 12.8525 47.7836 12.8524 47.7836 12.8523C47.7836 12.0736 47.3573 11.3613 46.6713 10.9928L31.9391 3.08238C31.314 2.74633 30.5672 2.74633 29.9419 3.08226L15.2095 10.9928C14.5233 11.3613 14.097 12.0739 14.0972 12.8527C14.0972 13.6314 14.5234 14.3439 15.2095 14.7121ZM48.3607 34.4626C48.3607 35.2823 47.6939 35.9492 46.8742 35.9492C46.0545 35.9492 45.3876 35.2823 45.3876 34.4626C45.3876 33.6429 46.0545 32.9761 46.8742 32.9761C47.6939 32.9761 48.3607 33.6431 48.3607 34.4626ZM16.07 12.5954L30.8027 4.68487C30.889 4.63866 30.9919 4.63854 31.0783 4.68499L45.8107 12.5954C45.9446 12.6674 45.9645 12.7874 45.9645 12.8525C45.9645 12.9177 45.9446 13.0376 45.8107 13.1095L31.0782 21.0201C30.992 21.0665 30.8888 21.0665 30.8024 21.0201L26.6284 18.7789C26.1858 18.5411 25.6345 18.7073 25.3968 19.15C25.1591 19.5926 25.3253 20.1439 25.7679 20.3815L29.9419 22.6227C30.2545 22.7907 30.5975 22.8746 30.9404 22.8746C31.2834 22.8746 31.6264 22.7907 31.9389 22.6227L42.8273 16.7762V24.3352C42.8273 26.4327 41.1209 28.1391 39.0232 28.1391H22.9789C20.8813 28.1391 19.1748 26.4327 19.1748 24.3352V16.8412L22.2442 18.4893C22.6869 18.7272 23.2384 18.5608 23.4758 18.1182C23.7135 17.6757 23.5473 17.1242 23.1047 16.8867L16.07 13.1094C15.9361 13.0376 15.9163 12.9177 15.9163 12.8525C15.9163 12.7874 15.9361 12.6674 16.07 12.5954Z" fill="#122D98"/>
</g>
<defs>
<clipPath id="clip0">
<rect width="62" height="62" fill="white"/>
</clipPath>
</defs>
</svg>
