<svg width="62" height="62" viewBox="0 0 62 62" fill="none" xmlns="http://www.w3.org/2000/svg">
<g clip-path="url(#clip0)">
<path d="M11.9983 40.5461C10.6099 41.8376 9.49479 43.3592 8.68373 45.0689L8.25531 45.9723L1.28581 54.7698C0.973392 55.1642 1.03984 55.7372 1.43425 56.0496C1.60164 56.1823 1.80121 56.2465 1.99933 56.2465C2.26802 56.2465 2.53417 56.1282 2.71406 55.9012L9.74793 47.0223C9.79081 46.9683 9.82726 46.9093 9.85689 46.8472L10.33 45.8499C11.0417 44.3495 12.0205 43.0138 13.2394 41.8801C13.6077 41.5374 13.6286 40.9611 13.2859 40.5925C12.9432 40.2243 12.3668 40.2032 11.9983 40.5461Z" fill="#122D98"/>
<path d="M60.0818 34.3781C58.8333 32.9049 56.6194 32.7223 55.1466 33.9707L54.6756 34.3698C54.5653 33.8003 54.3128 33.2505 53.9117 32.7774C52.6635 31.3045 50.4494 31.1218 48.9765 32.37L48.5586 32.724C48.4417 32.1726 48.1901 31.6417 47.8004 31.182C46.5521 29.709 44.3383 29.5264 42.8652 30.7746L35.8628 36.7089C35.5032 36.6071 35.1246 36.5514 34.7329 36.5514H22.1514C19.8176 36.5514 17.4828 37.1112 15.3997 38.1702C14.9513 38.3982 14.7725 38.9466 15.0005 39.3951C15.2285 39.8435 15.7769 40.0225 16.2254 39.7943C18.0541 38.8649 20.1032 38.3735 22.1514 38.3735H34.733C36.0192 38.3735 37.0657 39.42 37.0657 40.7062C37.0657 41.3392 36.8164 41.9316 36.364 42.3743C35.9117 42.8166 35.3177 43.049 34.6821 43.0385C34.6754 43.0383 34.6687 43.0382 34.6619 43.0382H26.5417C26.0385 43.0382 25.6307 43.446 25.6307 43.9492C25.6307 44.4525 26.0385 44.8603 26.5417 44.8603H34.6524C34.6805 44.8609 34.7086 44.8611 34.7366 44.8611C35.8278 44.8611 36.855 44.4427 37.638 43.6769C37.7527 43.5645 37.8594 43.4464 37.9592 43.3238H45.6571C46.4769 43.3238 47.2729 43.0319 47.8984 42.5017L56.3246 35.3607C57.0312 34.7619 58.093 34.8496 58.6918 35.556C59.2906 36.2626 59.2029 37.3246 58.4965 37.9233L45.1948 49.1963C43.9532 50.2483 42.4431 50.9072 40.8274 51.1015L39.1862 51.299C38.6867 51.3592 38.3305 51.8127 38.3906 52.3125C38.4462 52.775 38.8394 53.1147 39.294 53.1147C39.3304 53.1147 39.3671 53.1124 39.404 53.108L41.0451 52.9105C43.0161 52.6735 44.8583 51.8698 46.3727 50.5863L59.6745 39.3133C61.1474 38.0651 61.3302 35.851 60.0818 34.3781ZM44.0432 32.1645C44.7496 31.5657 45.8117 31.6535 46.4105 32.3599C46.9624 33.0111 46.9409 33.9594 46.366 34.5822L38.8819 40.9247C38.8857 40.8522 38.8878 40.7793 38.8878 40.7062C38.8878 39.5046 38.3745 38.4212 37.5564 37.6619L44.0432 32.1645ZM41.0193 41.5017L50.1545 33.7599C50.8612 33.1611 51.9231 33.2489 52.5217 33.9553C53.1206 34.6619 53.0329 35.7239 52.3264 36.3226L46.7205 41.1117C46.4238 41.3631 46.046 41.5017 45.6571 41.5017H41.0193Z" fill="#122D98"/>
<path d="M35.3158 51.7645L25.9739 52.8884C25.7434 52.9162 25.5322 53.0307 25.3835 53.2088L19.289 60.5048C18.9665 60.8911 19.018 61.4655 19.4041 61.788C19.5744 61.9304 19.7815 61.9999 19.9877 61.9999C20.2484 61.9999 20.5071 61.8886 20.6874 61.673L26.5503 54.6542L35.5335 53.5736C36.033 53.5135 36.3894 53.0599 36.3292 52.5603C36.2691 52.0608 35.8137 51.7049 35.3158 51.7645Z" fill="#122D98"/>
<path d="M28.0821 26.0687C28.0821 26.0687 22.7581 17.7806 22.7504 17.7699C21.8492 16.4917 21.2507 14.9998 21.0196 13.4556C20.9452 12.958 20.4808 12.6146 19.9838 12.6895C19.4861 12.7639 19.1432 13.2278 19.2177 13.7253C19.4895 15.5423 20.192 17.2976 21.2498 18.8033L26.4046 26.8283V28.157C26.4046 28.5417 26.5403 28.8951 26.7657 29.1728V32.3042C26.7657 33.7698 27.9581 34.9622 29.4237 34.9622H32.6377C34.1033 34.9622 35.2957 33.7699 35.2957 32.3042V29.1728C35.5212 28.8951 35.6569 28.5417 35.6569 28.157V26.8283L40.8117 18.8033C42.2279 16.7873 42.9766 14.416 42.9766 11.9443C42.9766 7.99518 41.0276 4.30576 37.7629 2.07484C34.428 -0.204071 30.2504 -0.627639 26.3018 0.912485C23.4414 2.02819 21.1542 4.3003 20.0266 7.14635C19.7175 7.92631 19.4811 8.72644 19.324 9.5245C19.2267 10.0182 19.5481 10.4972 20.0416 10.5945C20.5364 10.6922 21.0143 10.3704 21.1116 9.87688C21.2474 9.18729 21.4524 8.49443 21.7206 7.81747C22.6623 5.44054 24.5736 3.54244 26.9641 2.61003C30.3435 1.29196 33.9049 1.64544 36.7349 3.57925C39.502 5.47042 41.1543 8.59756 41.1543 11.9444C41.1543 14.0449 40.5168 16.0592 39.3107 17.7699C39.3032 17.7806 33.979 26.0687 33.979 26.0687C33.8847 26.2156 33.8346 26.3864 33.8346 26.5611V27.9504H33.612L34.131 19.1435H34.9995C36.3969 19.1435 37.5336 18.0068 37.5336 16.6094V16.5087C37.5336 15.1113 36.3969 13.9746 34.9995 13.9746C33.6598 13.9746 32.5485 15.0223 32.4697 16.3598L32.4131 17.3216H29.6566L29.6 16.3598C29.5213 15.0223 28.41 13.9746 27.0701 13.9746C25.6727 13.9746 24.536 15.1113 24.536 16.5087V16.6094C24.536 18.0068 25.6727 19.1435 27.0701 19.1435H27.9388L28.4576 27.9504H28.2264V26.5611C28.2265 26.3864 28.1764 26.2156 28.0821 26.0687ZM34.2888 16.4668C34.3109 16.0908 34.623 15.7964 34.9996 15.7964C35.3922 15.7964 35.7117 16.1158 35.7117 16.5084V16.6091C35.7117 17.0017 35.3922 17.3212 34.9996 17.3212H34.2383L34.2888 16.4668ZM27.0701 17.3213C26.6775 17.3213 26.3581 17.0019 26.3581 16.6093V16.5086C26.3581 16.116 26.6775 15.7965 27.0701 15.7965C27.4467 15.7965 27.759 16.0909 27.7811 16.4669L27.8315 17.3214H27.0701V17.3213ZM33.4734 32.3043C33.4734 32.7653 33.0985 33.1403 32.6375 33.1403H29.4235C28.9625 33.1403 28.5875 32.7653 28.5875 32.3043V29.7723H33.4734V32.3043ZM29.764 19.1434H32.3058L31.7868 27.9502H30.283L29.764 19.1434Z" fill="#122D98"/>
<path d="M46.8091 12.9337C46.8091 13.4369 47.2169 13.8447 47.7201 13.8447H49.8677C50.371 13.8447 50.7787 13.4369 50.7787 12.9337C50.7787 12.4304 50.371 12.0227 49.8677 12.0227H47.7201C47.2169 12.0227 46.8091 12.4306 46.8091 12.9337Z" fill="#122D98"/>
<path d="M46.2786 8.1169C46.3837 8.1169 46.4907 8.09856 46.5951 8.05981L48.6087 7.31337C49.0805 7.13858 49.3211 6.61431 49.1463 6.14252C48.9714 5.67073 48.4472 5.42997 47.9754 5.60489L45.9618 6.35133C45.49 6.52612 45.2494 7.05039 45.4242 7.52218C45.5605 7.88963 45.9085 8.1169 46.2786 8.1169Z" fill="#122D98"/>
<path d="M45.9619 19.5162L47.9755 20.2625C48.0798 20.3011 48.1869 20.3196 48.2919 20.3196C48.662 20.3196 49.0102 20.0923 49.1462 19.7249C49.321 19.2531 49.0804 18.7289 48.6086 18.554L46.595 17.8077C46.1232 17.633 45.5989 17.8737 45.4241 18.3453C45.2495 18.8171 45.4901 19.3413 45.9619 19.5162Z" fill="#122D98"/>
<path d="M12.1933 13.8447H14.3409C14.8441 13.8447 15.2519 13.4369 15.2519 12.9337C15.2519 12.4304 14.8441 12.0227 14.3409 12.0227H12.1933C11.69 12.0227 11.2822 12.4304 11.2822 12.9337C11.2822 13.4369 11.69 13.8447 12.1933 13.8447Z" fill="#122D98"/>
<path d="M13.4516 7.31349L15.4652 8.05993C15.5696 8.09856 15.6765 8.11702 15.7817 8.11702C16.1518 8.11702 16.4998 7.88975 16.636 7.5223C16.8108 7.05051 16.5701 6.52637 16.0983 6.35145L14.0847 5.60501C13.6132 5.43046 13.0889 5.67085 12.9139 6.14264C12.7392 6.61443 12.9799 7.13858 13.4516 7.31349Z" fill="#122D98"/>
<path d="M16.6356 18.3453C16.4608 17.8735 15.9366 17.6328 15.4647 17.8077L13.4511 18.554C12.9793 18.7288 12.7387 19.2531 12.9135 19.7249C13.0496 20.0922 13.3975 20.3196 13.7678 20.3196C13.8728 20.3196 13.9798 20.3013 14.0842 20.2625L16.0978 19.5162C16.5697 19.3413 16.8105 18.8171 16.6356 18.3453Z" fill="#122D98"/>
</g>
<defs>
<clipPath id="clip0">
<rect width="62" height="62" fill="white"/>
</clipPath>
</defs>
</svg>
