<svg width="62" height="62" viewBox="0 0 62 62" fill="none" xmlns="http://www.w3.org/2000/svg">
<g clip-path="url(#clip0)">
<path d="M36.574 28.0878C36.0744 28.5591 35.7587 29.1945 35.6886 29.8927C35.6006 30.7679 35.9105 31.6228 36.5388 32.2383C38.0302 33.6999 40.4572 33.7002 41.9487 32.2383C42.5769 31.6227 42.8868 30.7676 42.7989 29.8925C42.7287 29.1942 42.4129 28.559 41.9133 28.0877V27.4801H51.787C52.5222 27.4801 53.1206 26.8819 53.1206 26.1465V5.52267C53.1206 2.4839 50.6484 0.0117464 47.6097 0.0117464H5.51092C2.47216 0.0117464 0 2.4839 0 5.52267V47.6213C0 50.66 2.47216 53.1322 5.51092 53.1322H26.0005C26.81 53.1322 27.4685 52.4737 27.4685 51.6642V42.1857C27.4685 41.1403 26.618 40.2897 25.5725 40.2897H24.6074C24.2996 40.2897 24.0127 40.4457 23.8452 40.7039C23.6684 40.9767 23.3815 41.1518 23.0581 41.1843C22.7343 41.2164 22.4187 41.1022 22.1912 40.8701C21.4165 40.0796 21.4165 38.7934 22.1912 38.0029C22.4186 37.7708 22.7342 37.6561 23.0581 37.6887C23.3815 37.7211 23.6684 37.8962 23.8452 38.1691C24.0127 38.4274 24.2996 38.5833 24.6074 38.5833H25.5725C26.618 38.5833 27.4685 37.7329 27.4685 36.6873V27.4801H36.574V28.0878ZM25.5725 36.7669H25.0445C24.5732 36.2673 23.938 35.9516 23.2397 35.8815C22.3643 35.7934 21.5095 36.1034 20.894 36.7317C19.4321 38.2232 19.4321 40.6501 20.894 42.1416C21.5095 42.7698 22.3645 43.0796 23.2397 42.9918C23.938 42.9217 24.5734 42.6059 25.0445 42.1064H25.5725C25.6164 42.1064 25.6521 42.142 25.6521 42.1859V51.316H5.51092C3.47386 51.3158 1.81643 49.6585 1.81643 47.6214V27.4802H10.9465C11.9919 27.4802 12.8424 26.6298 12.8424 25.5844V24.6191C12.8424 24.3113 12.6864 24.0244 12.4281 23.8571C12.1554 23.6803 11.9803 23.3934 11.9477 23.07C11.9153 22.7465 12.0298 22.4305 12.262 22.203C13.0526 21.4283 14.3389 21.4284 15.1291 22.203C15.3614 22.4306 15.4758 22.7466 15.4435 23.0701C15.4109 23.3935 15.2358 23.6804 14.9631 23.8572C14.7048 24.0245 14.5489 24.3114 14.5489 24.6192V25.5845C14.5489 26.6299 15.3993 27.4804 16.4448 27.4804H19.9152C20.4169 27.4804 20.8234 27.0737 20.8234 26.5721C20.8234 26.0706 20.4169 25.6639 19.9152 25.6639H16.4448C16.401 25.6639 16.3653 25.6283 16.3653 25.5845V25.0564C16.8649 24.5851 17.1806 23.9498 17.2507 23.2516C17.3386 22.3764 17.0288 21.5214 16.4005 20.9057C14.9092 19.4442 12.4824 19.444 10.9905 20.9057C10.3622 21.5214 10.0525 22.3764 10.1403 23.2516C10.2104 23.9498 10.5262 24.5851 11.0257 25.0564V25.5845C11.0257 25.6283 10.9901 25.6639 10.9463 25.6639H1.81643V5.52267C1.81643 3.48548 3.47386 1.82817 5.51092 1.82817H25.6521V11.5298C25.6521 12.3599 26.3274 13.0354 27.1576 13.0354H28.5132C28.821 13.0354 29.1079 12.8794 29.2754 12.6211C29.4522 12.3484 29.739 12.1733 30.0625 12.1408C30.3864 12.1083 30.7019 12.2229 30.9294 12.455C31.7039 13.2455 31.7039 14.5317 30.9294 15.3222C30.702 15.5543 30.3863 15.6686 30.0625 15.6364C29.739 15.604 29.4522 15.4289 29.2754 15.156C29.1079 14.8977 28.821 14.7418 28.5132 14.7418H27.1576C26.3275 14.7418 25.6521 15.4172 25.6521 16.2473V25.6637H23.7858C23.2841 25.6637 22.8775 26.0703 22.8775 26.5719C22.8775 27.0735 23.2841 27.4801 23.7858 27.4801H25.6521V36.6873C25.6521 36.7313 25.6164 36.7669 25.5725 36.7669ZM27.4685 25.6638V16.5583H28.0762C28.5475 17.0579 29.1827 17.3736 29.881 17.4438C30.7562 17.5313 31.611 17.2218 32.2267 16.5935C33.6883 15.102 33.6883 12.6751 32.2267 11.1836C31.6112 10.5554 30.7562 10.2454 29.881 10.3334C29.1827 10.4035 28.5473 10.7193 28.0762 11.2189H27.4685V1.82817H47.6095C49.6466 1.82817 51.304 3.48548 51.304 5.52267V25.6638H41.6025C40.7724 25.6638 40.0968 26.3393 40.0968 27.1694V28.5249C40.0968 28.8328 40.2528 29.1196 40.5111 29.2871C40.7839 29.4639 40.959 29.7508 40.9914 30.0742C41.024 30.3977 40.9095 30.7136 40.6773 30.9411C39.8866 31.7159 38.6005 31.7157 37.8099 30.9411C37.5778 30.7137 37.4633 30.3978 37.4958 30.0743C37.5282 29.7509 37.7033 29.4639 37.9762 29.2871C38.2345 29.1197 38.3904 28.8329 38.3904 28.5251V27.1695C38.3904 26.3394 37.715 25.6639 36.8847 25.6639H27.4685V25.6638Z" fill="#122D98"/>
<path d="M61.0313 34.5197H50.4821C49.652 34.5197 48.9764 35.1952 48.9764 36.0253V37.3807C48.9764 37.6886 49.1322 37.9754 49.3907 38.1428C49.6635 38.3196 49.8385 38.6066 49.8711 38.93C49.9036 39.2535 49.7891 39.5694 49.5569 39.7969C48.7665 40.5715 47.4801 40.5717 46.6896 39.7969C46.4574 39.5694 46.3429 39.2533 46.3754 38.9299C46.4079 38.6065 46.583 38.3196 46.8558 38.1428C47.1141 37.9753 47.27 37.6884 47.27 37.3806V36.0252C47.27 35.1951 46.5946 34.5196 45.7644 34.5196H35.5003C34.9662 34.5196 34.5316 34.9542 34.5316 35.4884V38.5059C34.5316 39.0075 34.9381 39.4142 35.4398 39.4142C35.9415 39.4142 36.348 39.0075 36.348 38.5059V36.336H45.4535V36.9436C44.9539 37.4149 44.6382 38.0501 44.568 38.7484C44.48 39.6235 44.7899 40.4786 45.4183 41.0942C46.9098 42.5561 49.3367 42.556 50.8283 41.0942C51.4564 40.4787 51.7663 39.6237 51.6784 38.7485C51.6083 38.0501 51.2925 37.4149 50.7929 36.9436V36.336H60.1838V56.4772C60.1838 58.5144 58.5263 60.1717 56.4893 60.1717H36.3481V51.0416C36.3481 49.9962 35.4977 49.1457 34.4521 49.1457H33.487C33.1792 49.1457 32.8923 49.3017 32.7248 49.56C32.548 49.8327 32.2611 50.0078 31.9377 50.0403C31.6155 50.073 31.2982 49.9583 31.0707 49.726C30.296 48.9355 30.2961 47.6494 31.0708 46.8589C31.2983 46.6267 31.615 46.5126 31.9377 46.5446C32.2611 46.5771 32.548 46.7522 32.7248 47.0249C32.8923 47.2832 33.1792 47.4391 33.487 47.4391H34.4521C35.4977 47.4391 36.3481 46.5887 36.3481 45.5433V42.3766C36.3481 41.8751 35.9416 41.4684 35.4399 41.4684C34.9382 41.4684 34.5317 41.8751 34.5317 42.3766V45.5433C34.5317 45.5871 34.496 45.6227 34.4521 45.6227H33.9241C33.4528 45.1231 32.8176 44.8074 32.1195 44.7373C31.2441 44.6493 30.3893 44.9591 29.7735 45.5875C28.3118 47.079 28.3119 49.5059 29.7736 50.9974C30.3891 51.6256 31.2439 51.9352 32.1193 51.8476C32.8177 51.7775 33.453 51.4618 33.9241 50.9622H34.4521C34.496 50.9622 34.5317 50.9978 34.5317 51.0416V60.4197C34.5317 61.2846 35.2354 61.9882 36.1001 61.9882H56.4891C59.5279 61.9882 62.0001 59.5161 62.0001 56.4773V35.4885C62.0001 34.9543 61.5655 34.5197 61.0313 34.5197Z" fill="#122D98"/>
</g>
<defs>
<clipPath id="clip0">
<rect width="62" height="62" fill="white"/>
</clipPath>
</defs>
</svg>
