<svg width="62" height="62" viewBox="0 0 62 62" fill="none" xmlns="http://www.w3.org/2000/svg">
<g clip-path="url(#clip0)">
<path d="M61.0905 51.068H59.5849V19.0105C59.5849 15.7336 56.9188 13.0676 53.6418 13.0676H46.8731C46.3707 13.0676 45.9636 13.4747 45.9636 13.9771C45.9636 14.4796 46.3707 14.8867 46.8731 14.8867H53.6418C55.9158 14.8867 57.7658 16.7367 57.7658 19.0105V51.068H37.4341C36.8134 51.068 36.2344 51.3743 35.8853 51.8874L35.6126 52.2882C35.3591 52.6606 34.9389 52.8829 34.4884 52.8829H27.3902C26.9397 52.8829 26.5195 52.6606 26.266 52.2882L25.9934 51.8875C25.6444 51.3745 25.0654 51.068 24.4446 51.068H4.23422V19.0105C4.23422 16.7367 6.08423 14.8867 8.35821 14.8867H14.2162C14.7186 14.8867 15.1257 14.4796 15.1257 13.9771C15.1257 13.4747 14.7186 13.0676 14.2162 13.0676H8.35821C5.08131 13.0676 2.41514 15.7335 2.41514 19.0105V51.068H0.909543C0.407111 51.068 0 51.4752 0 51.9776V53.8713C0 57.2949 2.78538 60.0803 6.20902 60.0803H55.791C59.2146 60.0803 62 57.2949 62 53.8713V51.9776C62 51.4752 61.5929 51.068 61.0905 51.068ZM60.1809 53.8713C60.1809 56.2918 58.2116 58.2612 55.791 58.2612H6.20902C3.78843 58.2612 1.81909 56.2918 1.81909 53.8713V52.8871H24.4446C24.4626 52.8871 24.4793 52.8959 24.4895 52.9108L24.7622 53.3116C25.3548 54.1822 26.3371 54.702 27.3902 54.702H34.4884C35.5415 54.702 36.5238 54.1822 37.1164 53.3116L37.3891 52.9108L37.3892 52.9107C37.3993 52.8959 37.416 52.8871 37.434 52.8871H60.1808V53.8713H60.1809Z" fill="#122D98"/>
<path d="M6.2959 48.0969C6.2959 48.5993 6.70301 49.0064 7.20544 49.0064H54.7947C55.2971 49.0064 55.7042 48.5993 55.7042 48.0969V19.0105C55.7042 17.8734 54.779 16.9482 53.6419 16.9482H46.8732C46.3707 16.9482 45.9636 17.3553 45.9636 17.8577C45.9636 18.3602 46.3707 18.7673 46.8732 18.7673H53.6419C53.776 18.7673 53.8851 18.8763 53.8851 19.0105V47.1873H40.6912V43.4737C40.6912 41.4988 39.9221 39.6421 38.5256 38.2455L37.3414 37.0613C37.7615 36.4098 38.0868 35.6867 38.2926 34.907C38.4208 34.4213 38.131 33.9238 37.6453 33.7955C37.1594 33.6676 36.6621 33.9571 36.5337 34.4428C36.3229 35.2413 35.948 35.9626 35.4516 36.5755C35.448 36.5799 35.4443 36.5841 35.4408 36.5884C34.3785 37.8925 32.7636 38.701 31.0001 38.701C27.8441 38.701 25.2764 36.1333 25.2764 32.9774C25.2764 29.8214 27.8441 27.2537 31.0001 27.2537C33.4354 27.2537 35.6083 28.7993 36.4071 31.0998C36.5718 31.5742 37.0894 31.8255 37.5646 31.6607C38.0392 31.496 38.2902 30.9777 38.1255 30.5032C37.0729 27.4715 34.2094 25.4346 31.0001 25.4346C26.8409 25.4346 23.4573 28.8182 23.4573 32.9774C23.4573 34.4804 23.9009 35.881 24.6616 37.0584L23.4745 38.2455C22.0779 39.6422 21.3089 41.4988 21.3089 43.4737V47.1873H8.11498V43.8551C8.11498 43.3527 7.70787 42.9456 7.20544 42.9456C6.70301 42.9456 6.2959 43.3527 6.2959 43.8551V48.0969ZM23.128 43.4736C23.128 41.9846 23.7079 40.5848 24.761 39.5318L25.8305 38.4623C27.1817 39.7366 29.0006 40.52 31.0001 40.52C32.9744 40.52 34.8069 39.7503 36.1724 38.4649L37.2393 39.5316C38.2923 40.5846 38.8722 41.9845 38.8722 43.4735V47.1871H23.128V43.4736Z" fill="#122D98"/>
<path d="M7.20544 40.8852C7.70787 40.8852 8.11498 40.478 8.11498 39.9756V19.0105C8.11498 18.8764 8.22401 18.7673 8.35813 18.7673H14.2162C14.7186 18.7673 15.1257 18.3602 15.1257 17.8577C15.1257 17.3553 14.7186 16.9482 14.2162 16.9482H8.35813C7.22096 16.9482 6.2959 17.8734 6.2959 19.0105V39.9756C6.2959 40.4779 6.70301 40.8852 7.20544 40.8852Z" fill="#122D98"/>
<path d="M20.8988 23.5123H40.1904C42.3708 23.5123 44.1444 21.7386 44.1444 19.5583V5.87395C44.1444 3.69359 42.3707 1.91986 40.1904 1.91986H20.8988C18.7184 1.91986 16.9448 3.69371 16.9448 5.87395V7.77877C16.9448 8.2812 17.3519 8.68831 17.8544 8.68831C18.3568 8.68831 18.7639 8.2812 18.7639 7.77877V5.87395C18.7639 4.69664 19.7216 3.73895 20.8988 3.73895H40.1904C41.3676 3.73895 42.3253 4.69664 42.3253 5.87395V19.5583C42.3253 20.7355 41.3676 21.6932 40.1904 21.6932H20.8988C19.7216 21.6932 18.7639 20.7355 18.7639 19.5583V11.6582C18.7639 11.1557 18.3568 10.7486 17.8544 10.7486C17.3519 10.7486 16.9448 11.1557 16.9448 11.6582V19.5583C16.9448 21.7386 18.7186 23.5123 20.8988 23.5123Z" fill="#122D98"/>
<path d="M28.1161 18.3538C28.5247 18.3538 28.9332 18.2447 29.3046 18.0265L34.899 14.7396C35.6241 14.3134 36.057 13.557 36.057 12.716C36.057 11.875 35.624 11.1186 34.899 10.6927L29.3045 7.40574C28.57 6.97413 27.6896 6.96904 26.9501 7.3924C26.2105 7.81564 25.769 8.57711 25.769 9.42917V16.0031C25.769 16.8552 26.2106 17.6167 26.9501 18.04C27.3159 18.2492 27.7161 18.3538 28.1161 18.3538ZM27.588 9.42905C27.588 9.15291 27.7737 9.01684 27.8535 8.97112C27.9016 8.94359 27.9975 8.89945 28.1186 8.89945C28.198 8.89945 28.2884 8.91861 28.383 8.97415L33.9775 12.2611C34.2125 12.3991 34.2377 12.6252 34.2377 12.7159C34.2377 12.8067 34.2124 13.0328 33.9774 13.1709L28.3831 16.4579C28.1448 16.5978 27.9335 16.5065 27.8537 16.4609C27.7738 16.4152 27.5881 16.279 27.5881 16.0029V9.42905H27.588Z" fill="#122D98"/>
</g>
<defs>
<clipPath id="clip0">
<rect width="62" height="62" fill="white"/>
</clipPath>
</defs>
</svg>
