<svg width="125" height="48" viewBox="0 0 125 48" fill="none" xmlns="http://www.w3.org/2000/svg">
<path d="M72.0765 0.334473L64.7917 20.0121H60.691L53.3579 0.334473H58.4235L62.669 13.421H62.7172L67.0592 0.334473H72.0765Z" fill="#A9CAEA"/>
<path d="M72.125 10.1732C72.125 4.25084 76.274 0.0478516 82.3527 0.0478516C88.2867 0.0478516 92.5322 4.15531 92.5322 10.1732C92.5322 16.1911 88.2867 20.2986 82.3527 20.2986C76.274 20.2986 72.125 16.0956 72.125 10.1732ZM87.6595 10.1732C87.6595 6.8777 85.4403 4.39412 82.3527 4.39412C79.2169 4.39412 76.9976 6.97322 76.9976 10.1732C76.9976 13.3732 79.2169 15.9523 82.3527 15.9523C85.4403 15.9523 87.6595 13.4687 87.6595 10.1732Z" fill="#A9CAEA"/>
<path d="M95.2817 0.334473H108.259V4.4897H99.8649V8.26283H106.474V12.3225H99.8649V15.9046H108.838V20.0121H95.2817V0.334473Z" fill="#A9CAEA"/>
<path d="M111.54 0.334473H125V4.4897H116.171V8.93149H123.456V13.039H116.171V20.0598H111.588V0.334473H111.54Z" fill="#A9CAEA"/>
<path d="M66.7213 43.6536V47.7133H53.9366L53.8884 44.7999L59.5812 38.7342C61.0767 37.1581 61.9451 35.9641 61.9451 34.6268C61.9451 33.4327 61.125 32.573 59.9189 32.573C58.761 32.573 57.7961 33.1462 56.976 34.3402L53.7437 32.0477C54.9015 30.0895 56.976 28.4656 60.3048 28.4656C63.5854 28.4656 66.5283 30.6148 66.5283 34.1492C66.5283 36.2984 65.9494 37.9223 63.3924 40.5969L60.4013 43.7014V43.7492H66.7213V43.6536Z" fill="white"/>
<path d="M68.6509 38.2089C68.6509 32.3342 71.5938 28.4656 76.2734 28.4656C80.8566 28.4656 83.9442 32.0954 83.9442 38.2089C83.9442 44.1312 81.0013 47.9999 76.2734 47.9999C71.7385 47.9999 68.6509 44.3223 68.6509 38.2089ZM79.3128 38.2089C79.3128 34.8656 78.2997 32.6208 76.3217 32.6208C74.5366 32.6208 73.3305 34.4357 73.3305 38.2089C73.3305 41.5521 74.3437 43.8447 76.3217 43.8447C78.1067 43.7969 79.3128 41.982 79.3128 38.2089Z" fill="white"/>
<path d="M98.5621 43.6536V47.7133H85.7775L85.7292 44.7999L91.422 38.7342C92.9175 37.1581 93.7859 35.9641 93.7859 34.6268C93.7859 33.4327 92.9658 32.573 91.7597 32.573C90.6018 32.573 89.637 33.1462 88.8168 34.3402L85.5845 32.0477C86.7423 30.0895 88.8168 28.4656 92.1456 28.4656C95.4262 28.4656 98.3691 30.6148 98.3691 34.1492C98.3691 36.2984 97.7902 37.9223 95.2333 40.5969L92.2421 43.7014V43.7492H98.5621V43.6536Z" fill="white"/>
<path d="M100.492 38.2089C100.492 32.3342 103.435 28.4656 108.115 28.4656C112.698 28.4656 115.786 32.0954 115.786 38.2089C115.786 44.1312 112.843 47.9999 108.115 47.9999C103.532 47.9999 100.492 44.3223 100.492 38.2089ZM111.106 38.2089C111.106 34.8656 110.093 32.6208 108.115 32.6208C106.33 32.6208 105.124 34.4357 105.124 38.2089C105.124 41.5521 106.137 43.8447 108.115 43.8447C109.9 43.7969 111.106 41.982 111.106 38.2089Z" fill="white"/>
<path d="M9.79352 0H0V9.69552V32.1433H9.79352V9.69552H42.7924V0H9.79352Z" fill="#A9CAEA"/>
<path d="M15.583 15.4268V25.0745V47.57H25.3283V25.0745H42.7926V15.4268H25.3283H15.583Z" fill="#A9CAEA"/>
</svg>
