<svg width="54" height="54" viewBox="0 0 54 54" fill="none" xmlns="http://www.w3.org/2000/svg">
<g clip-path="url(#clip0)">
<path d="M38.0177 46.827C37.5353 46.7046 37.0467 46.9998 36.927 47.4813L36.027 51.0813C35.9055 51.5646 36.1998 52.0523 36.6822 52.173C36.7551 52.1919 36.8289 52.2 36.9009 52.2C37.3041 52.2 37.6704 51.9273 37.773 51.5187L38.673 47.9187C38.7936 47.4363 38.5001 46.9477 38.0177 46.827Z" fill="white"/>
<path d="M27 28.7999C27.117 28.7999 27.234 28.7775 27.3438 28.7316L37.2439 24.6348C37.7029 24.4448 37.9207 23.9183 37.7308 23.4593C37.5409 22.9994 37.0126 22.7834 36.5545 22.9715L27 26.9261L1.80004 16.4987V16.1999C1.80004 15.7031 1.39683 15.2999 0.90007 15.2999C0.403313 15.2999 0 15.7031 0 16.1999V17.0999C0 17.4644 0.219586 17.7929 0.556242 17.9315L26.6563 28.7315C26.766 28.7774 26.883 28.7999 27 28.7999Z" fill="white"/>
<path d="M37.7065 38.0205C37.4869 37.575 36.9487 37.3914 36.5014 37.6119C34.7923 38.457 31.9375 39.4398 27.9001 39.5739V31.5C27.9001 31.0032 27.4969 30.6 27.0002 30.6C26.5034 30.6 26.1002 31.0032 26.1002 31.5V39.5658C14.925 39.2094 11.3187 32.4396 10.8002 31.3128V25.2C10.8002 24.7033 10.397 24.3 9.90021 24.3C9.40345 24.3 9.00024 24.7033 9.00024 25.2V31.5C9.00024 31.6143 9.02187 31.7277 9.06416 31.8347C9.22078 32.2244 13.0512 41.3999 27.0003 41.3999C31.8756 41.3999 35.292 40.2173 37.299 39.2255C37.7451 39.005 37.9279 38.466 37.7065 38.0205Z" fill="white"/>
<path d="M40.4999 47.7C40.0022 47.7 39.6 48.1032 39.6 48.5999V51.2999C39.6 51.7967 40.0022 52.1999 40.4999 52.1999C40.9976 52.1999 41.3999 51.7967 41.3999 51.2999V48.5999C41.3999 48.1032 40.9976 47.7 40.4999 47.7Z" fill="white"/>
<path d="M53.1 15.3C52.6023 15.3 52.2001 15.7032 52.2001 16.2V16.497L41.4001 20.9421V19.3157L53.4439 14.3315C53.7804 14.1929 54.0001 13.8644 54.0001 13.4999C54.0001 13.1354 53.7805 12.8078 53.4448 12.6683L27.3438 1.86836C27.1233 1.77744 26.8767 1.77744 26.6563 1.86836L0.556242 12.6684C0.219586 12.8079 0 13.1355 0 13.5C0 13.8645 0.219586 14.193 0.556242 14.3316L26.6563 25.1316C26.7661 25.1775 26.883 25.2 27.0001 25.2C27.1172 25.2 27.2341 25.1776 27.3439 25.1316L36.7814 21.2265C37.2413 21.0375 37.4591 20.511 37.2692 20.0511C37.0792 19.5921 36.5527 19.3751 36.0937 19.5641L27 23.3262L3.2535 13.5L27 3.67377L50.7465 13.5L40.4136 17.7759L30.5163 14.0805C30.5685 13.8933 30.6001 13.7007 30.6001 13.5C30.6001 11.9862 29.0188 10.8 27.0001 10.8C24.9814 10.8 23.4001 11.9862 23.4001 13.5C23.4001 15.0138 24.9814 16.2 27.0001 16.2C27.901 16.2 28.7047 15.9542 29.3293 15.5583L39.6 19.3933V22.2769V22.2778V41.5657C38.5552 41.9392 37.8 42.9283 37.8 44.1002C37.8 45.5887 39.0114 46.8002 40.5 46.8002C41.9886 46.8002 43.2 45.5887 43.2 44.1002C43.2 42.9284 42.4449 41.9393 41.4 41.5657V36.4574C43.9838 34.507 44.91 31.9097 44.9505 31.7945C44.9828 31.7 44.9999 31.6001 44.9999 31.5002V25.2003C44.9999 24.7035 44.5977 24.3003 44.1 24.3003C43.6023 24.3003 43.2 24.7035 43.2 25.2003V31.3338C43.0443 31.7154 42.5034 32.8917 41.4 34.0527V22.8888L53.4429 17.9325C53.7804 17.7939 54 17.4645 54 17.1V16.2001C54 15.7032 53.5977 15.3 53.1 15.3ZM27 14.3999C25.9011 14.3999 25.2 13.8671 25.2 13.5C25.2 13.1327 25.901 12.6 27 12.6C28.099 12.6 28.8 13.1328 28.8 13.5C28.8 13.8672 28.0989 14.3999 27 14.3999ZM40.5 45C40.0032 45 39.6 44.596 39.6 44.1C39.6 43.6041 40.0032 43.2001 40.5 43.2001C40.9968 43.2001 41.4 43.6041 41.4 44.1C41.4 44.5959 40.9968 45 40.5 45Z" fill="white"/>
<path d="M44.073 47.4813C43.9524 46.9998 43.4627 46.7054 42.9822 46.8269C42.4998 46.9475 42.2064 47.4362 42.327 47.9186L43.227 51.5186C43.3296 51.9272 43.6959 52.1999 44.0991 52.1999C44.1712 52.1999 44.2449 52.1918 44.3179 52.1729C44.8003 52.0524 45.0937 51.5645 44.973 51.0812L44.073 47.4813Z" fill="white"/>
</g>
<defs>
<clipPath id="clip0">
<rect width="54" height="54" fill="white"/>
</clipPath>
</defs>
</svg>
