<svg width="54" height="54" viewBox="0 0 54 54" fill="none" xmlns="http://www.w3.org/2000/svg">
<path d="M5.37027 47.0115C5.49082 47.0115 5.61232 46.9872 5.72939 46.9358C8.60036 45.6857 13.4487 45.0351 20.1447 45.0008L20.7944 46.3022C21.0176 46.7468 21.5586 46.9286 22.0023 46.7045C22.4468 46.4821 22.6278 45.9421 22.4045 45.4976L21.5054 43.6975C21.3524 43.3924 21.041 43.1998 20.6999 43.1998C13.3659 43.1998 8.23311 43.882 5.0102 45.2852C4.55479 45.4841 4.34691 46.0142 4.54487 46.4704C4.69263 46.809 5.02296 47.0115 5.37027 47.0115Z" fill="white"/>
<path d="M52.2 48.5999H50.3999V44.0999C50.3999 43.8614 50.3045 43.6319 50.1363 43.4636L44.7291 38.0572C44.8983 37.7053 45 37.3157 45 36.8998C45 35.4112 43.7886 34.1998 42.3 34.1998C40.8114 34.1998 39.6 35.4112 39.6 36.8998C39.6 38.3884 40.8114 39.5998 42.3 39.5998C42.7158 39.5998 43.1047 39.4982 43.4565 39.3298L48.6 44.4724V48.5999H1.80003C0.807258 48.5999 0 49.4072 0 50.3999V53.0999C0 53.5967 0.403207 53.9999 0.899965 53.9999C1.39672 53.9999 1.79993 53.5967 1.79993 53.0999V50.3999H52.2V53.0999C52.2 53.5967 52.6022 53.9999 53.0999 53.9999C53.5976 53.9999 53.9999 53.5967 53.9999 53.0999V50.3999C54 49.4072 53.1918 48.5999 52.2 48.5999ZM42.3 37.7999C41.8033 37.7999 41.4001 37.3958 41.4001 36.8999C41.4001 36.404 41.8033 36 42.3 36C42.7968 36 43.2 36.404 43.2 36.8999C43.2 37.3958 42.7968 37.7999 42.3 37.7999Z" fill="white"/>
<path d="M12.8492 26.9208C13.5053 28.629 15.6761 34.137 17.2511 36.4995L17.3933 36.7145C18.5489 38.4668 20.4821 41.3999 26.9999 41.3999C33.5168 41.3999 35.4509 38.4668 36.6065 36.7145L36.7487 36.4995C38.3237 34.137 40.4936 28.629 41.1507 26.9208C42.3261 26.6283 43.1999 25.5645 43.1999 24.3V20.7C43.1999 19.5265 42.4475 18.5256 41.3999 18.1539V13.5C41.3999 9.94676 39.5288 3.38312 32.6078 2.74946C32.5943 2.32464 32.4539 1.98271 32.2973 1.72979C31.4126 0.299742 28.9286 0 26.9999 0C10.9853 0 10.7999 15.147 10.7999 15.3C10.7999 15.7968 11.2022 16.1992 11.6981 16.1992H11.6999C12.1958 16.1992 12.5981 15.7977 12.5999 15.301C12.6016 14.7502 12.8042 1.80004 26.9998 1.80004C29.545 1.80004 30.5648 2.35079 30.7663 2.67659C30.7943 2.72246 30.8707 2.84576 30.6943 3.19771C30.5548 3.47667 30.57 3.80795 30.7338 4.07341C30.8986 4.33804 31.1875 4.50004 31.4998 4.50004C39.4792 4.50004 39.5988 13.1337 39.5998 13.5V18.9C39.5998 19.3968 40.002 19.8 40.4997 19.8C40.9965 19.8 41.3997 20.204 41.3997 20.6999V24.3C41.3997 24.7959 40.9965 25.2 40.4997 25.2C40.1245 25.2 39.7888 25.4331 39.6564 25.784C39.6303 25.8551 36.9726 32.9184 35.2509 35.5005L35.1033 35.7236C34.0251 37.3599 32.5473 39.5999 26.9997 39.5999C21.4512 39.5999 19.9743 37.3599 18.8961 35.7236L18.7486 35.5005C17.0269 32.9184 14.3692 25.8551 14.3422 25.784C14.2108 25.4331 13.8751 25.2 13.4998 25.2C13.0039 25.2 12.5999 24.7959 12.5999 24.3V20.7C12.5999 20.4561 12.6971 20.2347 12.8554 20.0727C13.1821 20.8062 13.849 21.466 14.9695 21.5775L18.0493 23.887C18.2897 25.6401 19.781 27 21.5999 27H23.4C25.3853 27 26.9999 25.3854 26.9999 23.4C26.9999 25.3854 28.6145 27 30.5999 27H32.3999C34.2179 27 35.711 25.6401 35.9504 23.886L39.2399 21.4201C39.6377 21.1221 39.7187 20.5579 39.4199 20.16C39.122 19.7622 38.5577 19.6804 38.1599 19.98L35.8658 21.7008C35.523 20.6037 34.5095 19.8001 33.2999 19.8001H29.6999C28.2113 19.8001 26.9999 21.0115 26.9999 22.5001C26.9999 21.0115 25.7885 19.8001 24.2999 19.8001H20.7C19.4913 19.8001 18.4778 20.6037 18.1341 21.7008L16.4169 20.4129C17.1252 18.7012 17.7669 16.1694 17.9487 14.3919C20.7855 14.3415 28.9927 13.9951 32.6439 11.7162C33.4719 14.913 36.1296 17.6032 36.2637 17.7364C36.6155 18.0882 37.1844 18.0882 37.5363 17.7364C37.8881 17.3844 37.8881 16.8156 37.5363 16.4638C37.5029 16.4304 34.2 13.0906 34.2 9.90003C34.2 9.49598 33.93 9.14045 33.5403 9.03245C33.1523 8.92445 32.7356 9.09004 32.5287 9.4365C31.2183 11.619 22.7178 12.6 17.1 12.6C16.6032 12.6 16.2 13.0032 16.2 13.5C16.2 14.9607 15.5097 17.8785 14.7754 19.674C14.4883 19.5013 14.4073 19.1791 14.4001 18.9C14.4001 18.4032 13.9969 18 13.5001 18C12.0116 18 10.8001 19.2114 10.8001 20.7V24.3C10.7999 25.5645 11.6738 26.6283 12.8492 26.9208ZM28.8 22.5C28.8 22.004 29.2032 21.6 29.6999 21.6H33.2999C33.7966 21.6 34.1999 22.004 34.1999 22.5V23.3999C34.1999 24.3926 33.3926 25.2 32.3998 25.2H30.5998C29.6071 25.2 28.7998 24.3927 28.7998 23.3999V22.5H28.8ZM19.7999 22.5C19.7999 22.004 20.2039 21.6 20.6999 21.6H24.2999C24.7958 21.6 25.1999 22.004 25.1999 22.5V23.3999C25.1999 24.3926 24.3926 25.2 23.3999 25.2H21.5999C20.6073 25.2 19.7999 24.3927 19.7999 23.3999V22.5Z" fill="white"/>
<path d="M31.4991 32.4027C31.5001 31.9068 31.0987 31.5027 30.6027 31.5C30.5857 31.5 28.9764 31.4819 27.4023 30.6945C27.1494 30.5685 26.8506 30.5685 26.5977 30.6945C25.0236 31.482 23.4135 31.5 23.4 31.5C22.9032 31.5 22.5 31.9032 22.5 32.3999C22.5 32.8967 22.9032 33.2999 23.4 33.2999C23.4764 33.2999 25.1766 33.29 26.9999 32.4926C28.8224 33.29 30.5234 33.2999 30.5999 33.2999C31.0959 33.2999 31.4973 32.8985 31.4991 32.4027Z" fill="white"/>
<path d="M33.2972 43.2369C32.9607 43.2387 32.652 43.4277 32.498 43.7283L31.598 45.4905C31.3721 45.9333 31.5486 46.476 31.9905 46.7019C32.121 46.7685 32.2614 46.8 32.3991 46.8C32.7267 46.8 33.0425 46.6209 33.2019 46.3095L33.8508 45.0369C38.7702 45.0504 42.7321 45.4185 45.6354 46.1313C46.1196 46.251 46.6056 45.955 46.7235 45.4726C46.8423 44.9893 46.548 44.5024 46.0648 44.3836C42.9128 43.6086 38.6379 43.2054 33.2972 43.2369Z" fill="white"/>
<path d="M26.1 44.0999V45.9C26.1 46.3967 26.5032 46.7999 26.9999 46.7999C27.4967 46.7999 27.8999 46.3967 27.8999 45.9V44.0999C27.8999 43.6032 27.4967 43.2 26.9999 43.2C26.5032 43.2 26.1 43.6032 26.1 44.0999Z" fill="white"/>
<path d="M26.0999 34.2C25.6032 34.2 25.2 34.6032 25.2 35.0999C25.2 35.5967 25.6032 35.9999 26.0999 35.9999H27.8999C28.3977 35.9999 28.7999 35.5967 28.7999 35.0999C28.7999 34.6032 28.3977 34.2 27.8999 34.2H26.0999Z" fill="white"/>
</svg>
