<svg width="54" height="54" viewBox="0 0 54 54" fill="none" xmlns="http://www.w3.org/2000/svg">
<path d="M54 28.2001C54 24.1725 50.1426 20.6446 44.0244 18.354C44.1315 17.7078 44.2242 17.0697 44.2881 16.446C44.8776 10.6977 43.5321 6.56854 40.5 4.81797C39.4992 4.24021 38.3508 3.94679 37.089 3.94679C34.0984 3.94679 30.5649 5.646 27.0244 8.55747C24.157 6.19138 21.2823 4.62802 18.6633 4.12672C18.1737 4.03127 17.703 4.35264 17.6094 4.84138C17.5167 5.32917 17.8361 5.80072 18.3239 5.89343C20.5685 6.32364 23.0858 7.69789 25.6338 9.76434C23.706 11.5265 21.797 13.6299 19.9926 16.0139C16.9803 16.3774 14.1885 16.9724 11.7036 17.7572C11.24 14.8132 11.268 12.1871 11.8439 10.1171C12.0887 10.1693 12.3407 10.1999 12.5999 10.1999C14.5854 10.1999 16.1999 8.58531 16.1999 6.59997C16.1999 4.61547 14.5853 3 12.5999 3C10.6146 3 8.99996 4.61557 8.99996 6.60007C8.99996 7.67016 9.47784 8.62148 10.2213 9.28203C9.45084 11.7444 9.37796 14.8629 9.96026 18.3594C3.85109 20.65 0 24.1753 0 28.2001C0 32.1151 3.66662 35.6656 9.96121 38.0191C8.88574 44.464 10.0125 49.5696 13.5 51.5839C14.5008 52.1616 15.6492 52.4542 16.9119 52.4542C19.9053 52.4542 23.4423 50.7523 26.9847 47.8362C29.8818 50.2285 32.7573 51.7792 35.3385 52.2742C35.3952 52.2849 35.4528 52.2904 35.5086 52.2904C35.9316 52.2904 36.3096 51.9907 36.3924 51.5604C36.4851 51.0717 36.1657 50.6002 35.6778 50.5066C33.4791 50.0854 30.9482 48.7228 28.3679 46.6357C30.2966 44.8735 32.2047 42.7702 34.0091 40.3861C37.0232 40.0216 39.8169 39.4276 42.3017 38.6419C42.7653 41.5831 42.7365 44.2093 42.1578 46.2838C41.912 46.2308 41.66 46.2001 41.4 46.2001C39.4145 46.2001 37.8 47.8156 37.8 49.8001C37.8 51.7854 39.4146 53.4 41.4 53.4C43.3853 53.4 44.9999 51.7854 44.9999 49.8001C44.9999 48.7308 44.5229 47.7804 43.7804 47.1199C44.5544 44.6512 44.6291 41.5336 44.0468 38.0389C50.1525 35.7475 54 32.2231 54 28.2001ZM37.089 5.74683C38.0313 5.74683 38.8764 5.95924 39.6 6.37679C41.9463 7.73133 43.003 11.3349 42.498 16.2624C42.4476 16.7502 42.3693 17.2533 42.291 17.7555C39.8106 16.9725 37.0242 16.3794 34.0182 16.0158C32.2209 13.6308 30.3237 11.5149 28.4022 9.75274C31.5189 7.2274 34.5717 5.74683 37.089 5.74683ZM41.9517 19.5736C41.5151 21.6192 40.8689 23.7505 40.0319 25.9213C39.3893 24.583 38.6855 23.2393 37.9134 21.9001C37.1421 20.5627 36.3275 19.2829 35.4879 18.0571C37.8125 18.4261 39.9888 18.9409 41.9517 19.5736ZM27.0127 10.9461C28.5427 12.3339 30.0654 13.9575 31.5342 15.7728C30.0627 15.6612 28.5498 15.6 27 15.6C25.4529 15.6 23.9427 15.6612 22.4739 15.7719C23.9481 13.9548 25.479 12.3348 27.0127 10.9461ZM18.5121 18.057C17.6715 19.2819 16.8588 20.5653 16.0884 21.9009C15.3126 23.2446 14.6079 24.5875 13.9689 25.9194C13.1265 23.7334 12.4767 21.5967 12.0412 19.5762C14.0067 18.9418 16.1847 18.427 18.5121 18.057ZM12.6 4.80004C13.5927 4.80004 14.4001 5.60729 14.4001 6.60007C14.4001 7.59274 13.5928 8.4001 12.6 8.4001C11.6082 8.4001 10.8 7.59285 10.8 6.60007C10.8 5.6074 11.6082 4.80004 12.6 4.80004ZM1.80004 28.2001C1.80004 25.0582 5.12736 22.1791 10.3195 20.1847C10.8847 22.7308 11.7667 25.4326 12.9385 28.1884C11.7505 30.9747 10.8702 33.6847 10.3087 36.2244C4.98688 34.1716 1.80004 31.2348 1.80004 28.2001ZM26.9919 45.4522C25.5708 44.1688 24.1523 42.6793 22.7808 41.0171C22.8582 40.9019 22.9158 40.775 22.9797 40.6516C24.3262 40.7443 25.6752 40.8001 27 40.8001C28.548 40.8001 30.0582 40.7398 31.5279 40.6282C30.0546 42.4444 28.5237 44.0644 26.9919 45.4522ZM33.0399 38.6707C31.0977 38.8849 29.0736 39.0001 27 39.0001C25.8093 39.0001 24.5979 38.9506 23.3865 38.8732C23.3182 36.9481 21.7423 35.4001 19.8001 35.4001C17.8146 35.4001 16.2001 37.0156 16.2001 39.0001C16.2001 40.9855 17.8147 42.6 19.8001 42.6C20.3851 42.6 20.9313 42.4462 21.4201 42.1968C22.7907 43.8564 24.1975 45.3459 25.6087 46.6401C22.4884 49.1709 19.431 50.6542 16.9119 50.6542C15.9687 50.6542 15.1245 50.4427 14.4 50.0242C11.6775 48.4528 10.8485 44.1274 11.7206 38.6292C12.212 38.7841 12.7178 38.9326 13.2362 39.0738C13.7133 39.2043 14.21 38.9208 14.3414 38.442C14.4719 37.9624 14.1893 37.4682 13.7087 37.3378C13.1381 37.1821 12.5892 37.0138 12.0528 36.841C12.4857 34.8241 13.1282 32.683 13.9707 30.4853C14.5674 31.73 15.2199 32.9792 15.93 34.2238C16.0956 34.5145 16.3998 34.6774 16.7121 34.6774C16.8633 34.6774 17.0162 34.6397 17.1576 34.5595C17.5896 34.3138 17.7398 33.764 17.4933 33.332C16.5222 31.631 15.659 29.9129 14.9076 28.2083C15.6951 26.4146 16.6086 24.6002 17.6471 22.8011C18.6803 21.011 19.7964 19.3145 20.961 17.7297C22.904 17.5164 24.9264 17.4003 27 17.4003C29.0763 17.4003 31.1013 17.5164 33.0462 17.7306C34.2082 19.3164 35.3214 21.012 36.3547 22.8003C37.3878 24.5895 38.3014 26.3985 39.0934 28.1904C38.2959 29.994 37.3888 31.8074 36.3538 33.6011C35.3205 35.3892 34.2054 37.0858 33.0399 38.6707ZM21.6 39.0001C21.6 39.5059 21.3894 39.9622 21.0519 40.2889C21.0473 40.2925 21.042 40.2934 21.0374 40.297C21.0321 40.3006 21.0303 40.3069 21.0249 40.3115C20.7036 40.6121 20.2743 40.8002 19.8 40.8002C18.8081 40.8002 17.9999 39.993 17.9999 39.0002C17.9999 38.0075 18.8081 37.2001 19.8 37.2001C20.7927 37.2 21.6 38.0074 21.6 39.0001ZM35.4888 38.3431C36.3303 37.1182 37.1421 35.8357 37.9124 34.501C38.6837 33.1645 39.383 31.8145 40.0283 30.4654C40.8743 32.657 41.5268 34.798 41.9634 36.823C39.9969 37.4575 37.818 37.9731 35.4888 38.3431ZM41.4 51.6001C40.4081 51.6001 39.5999 50.7928 39.5999 49.8001C39.5999 48.8074 40.4081 48 41.4 48C42.3926 48 43.2 48.8073 43.2 49.8001C43.2 50.7927 42.3927 51.6001 41.4 51.6001ZM43.6896 36.2127C43.1226 33.6612 42.2325 30.9523 41.0553 28.1892C42.2145 25.4577 43.0965 22.7559 43.6644 20.1783C48.8655 22.1727 52.2 25.0546 52.2 28.2001C52.2 31.3402 48.8772 34.2183 43.6896 36.2127Z" fill="white"/>
</svg>
